HIERARCHY
ROOT Hips
{
	OFFSET 0.000000 100.481300 0.000000
	CHANNELS 6 Xposition Yposition Zposition Xrotation Yrotation Zrotation
	JOINT Spine
	{
		OFFSET -0.279200 12.230698 -2.892100
		CHANNELS 3 Xrotation Yrotation Zrotation
		JOINT Spine1
		{
			OFFSET -0.325700 14.269203 -3.374200
			CHANNELS 3 Xrotation Yrotation Zrotation
			JOINT Spine2
			{
				OFFSET -0.372300 16.307602 -0.352600
				CHANNELS 3 Xrotation Yrotation Zrotation
				JOINT Neck
				{
					OFFSET -0.418800 17.814194 8.416900
					CHANNELS 3 Xrotation Yrotation Zrotation
					JOINT Head
					{
						OFFSET 0.000000 7.031097 3.806800
						CHANNELS 3 Xrotation Yrotation Zrotation
						JOINT HeadTop_End
						{
							OFFSET 0.000000 24.646606 12.978600
							CHANNELS 3 Xrotation Yrotation Zrotation
							End Site
							{
								OFFSET 0.000000 27.854965 0.000000
							}
						}
					}
				}
				JOINT LeftShoulder
				{
					OFFSET 16.952999 14.495407 -7.737500
					CHANNELS 3 Xrotation Yrotation Zrotation
					JOINT LeftArm
					{
						OFFSET 9.308998 -2.777710 0.208600
						CHANNELS 3 Xrotation Yrotation Zrotation
						JOINT LeftForeArm
						{
							OFFSET 29.972298 0.000000 0.000000
							CHANNELS 3 Xrotation Yrotation Zrotation
							JOINT LeftHand
							{
								OFFSET 26.026505 0.000000 0.000000
								CHANNELS 3 Xrotation Yrotation Zrotation
								JOINT LeftHandThumb1
								{
									OFFSET 12.240501 -7.147949 9.207150
									CHANNELS 3 Xrotation Yrotation Zrotation
									JOINT LeftHandThumb2
									{
										OFFSET 4.138618 -2.389435 2.389433
										CHANNELS 3 Xrotation Yrotation Zrotation
										JOINT LeftHandThumb3
										{
											OFFSET 2.726913 -1.574387 1.574386
											CHANNELS 3 Xrotation Yrotation Zrotation
											JOINT LeftHandThumb4
											{
												OFFSET 3.941010 -2.275345 2.275342
												CHANNELS 3 Xrotation Yrotation Zrotation
												End Site
												{
													OFFSET -0.005798 5.087799 0.009903
												}
											}
										}
									}
								}
								JOINT LeftHandIndex1
								{
									OFFSET 24.424698 -1.985611 5.953459
									CHANNELS 3 Xrotation Yrotation Zrotation
									JOINT LeftHandIndex2
									{
										OFFSET 6.426697 0.000000 0.000000
										CHANNELS 3 Xrotation Yrotation Zrotation
										JOINT LeftHandIndex3
										{
											OFFSET 5.337898 0.000000 0.000000
											CHANNELS 3 Xrotation Yrotation Zrotation
											JOINT LeftHandIndex4
											{
												OFFSET 4.409401 0.000000 0.000000
												CHANNELS 3 Xrotation Yrotation Zrotation
												End Site
												{
													OFFSET 0.000000 4.409363 0.014373
												}
											}
										}
									}
								}
								JOINT LeftHandMiddle1
								{
									OFFSET 23.810104 0.000000 0.000000
									CHANNELS 3 Xrotation Yrotation Zrotation
									JOINT LeftHandMiddle2
									{
										OFFSET 7.176498 0.000000 0.000000
										CHANNELS 3 Xrotation Yrotation Zrotation
										JOINT LeftHandMiddle3
										{
											OFFSET 6.774902 0.000000 0.000000
											CHANNELS 3 Xrotation Yrotation Zrotation
											JOINT LeftHandMiddle4
											{
												OFFSET 5.403328 0.000000 0.000000
												CHANNELS 3 Xrotation Yrotation Zrotation
												End Site
												{
													OFFSET -0.027702 5.403244 0.017414
												}
											}
										}
									}
								}
								JOINT LeftHandRing1
								{
									OFFSET 22.908401 -0.839279 -6.020567
									CHANNELS 3 Xrotation Yrotation Zrotation
									JOINT LeftHandRing2
									{
										OFFSET 6.337502 0.000000 0.000000
										CHANNELS 3 Xrotation Yrotation Zrotation
										JOINT LeftHandRing3
										{
											OFFSET 5.779297 0.000000 0.000000
											CHANNELS 3 Xrotation Yrotation Zrotation
											JOINT LeftHandRing4
											{
												OFFSET 4.965698 0.000000 0.000000
												CHANNELS 3 Xrotation Yrotation Zrotation
												End Site
												{
													OFFSET 0.000000 4.965668 0.016186
												}
											}
										}
									}
								}
								JOINT LeftHandPinky1
								{
									OFFSET 20.037003 -1.530319 -10.950146
									CHANNELS 3 Xrotation Yrotation Zrotation
									JOINT LeftHandPinky2
									{
										OFFSET 5.254700 0.000000 0.000000
										CHANNELS 3 Xrotation Yrotation Zrotation
										JOINT LeftHandPinky3
										{
											OFFSET 4.810204 0.000000 0.000000
											CHANNELS 3 Xrotation Yrotation Zrotation
											JOINT LeftHandPinky4
											{
												OFFSET 3.647202 0.000000 0.000000
												CHANNELS 3 Xrotation Yrotation Zrotation
												End Site
												{
													OFFSET 0.000000 3.647186 0.011889
												}
											}
										}
									}
								}
							}
						}
					}
				}
				JOINT RightShoulder
				{
					OFFSET -15.141001 14.495407 -7.737500
					CHANNELS 3 Xrotation Yrotation Zrotation
					JOINT RightArm
					{
						OFFSET -9.308998 -2.777710 0.208500
						CHANNELS 3 Xrotation Yrotation Zrotation
						JOINT RightForeArm
						{
							OFFSET -29.972300 0.000000 0.000000
							CHANNELS 3 Xrotation Yrotation Zrotation
							JOINT RightHand
							{
								OFFSET -26.026505 0.000000 0.000000
								CHANNELS 3 Xrotation Yrotation Zrotation
								JOINT RightHandThumb1
								{
									OFFSET -12.240601 -7.148026 9.207092
									CHANNELS 3 Xrotation Yrotation Zrotation
									JOINT RightHandThumb2
									{
										OFFSET -4.138618 -2.389435 2.389433
										CHANNELS 3 Xrotation Yrotation Zrotation
										JOINT RightHandThumb3
										{
											OFFSET -2.726974 -1.574417 1.574421
											CHANNELS 3 Xrotation Yrotation Zrotation
											JOINT RightHandThumb4
											{
												OFFSET -3.941010 -2.275345 2.275343
												CHANNELS 3 Xrotation Yrotation Zrotation
												End Site
												{
													OFFSET 0.005814 5.087799 0.009927
												}
											}
										}
									}
								}
								JOINT RightHandIndex1
								{
									OFFSET -24.424698 -1.985657 5.953444
									CHANNELS 3 Xrotation Yrotation Zrotation
									JOINT RightHandIndex2
									{
										OFFSET -6.426697 0.000000 0.000000
										CHANNELS 3 Xrotation Yrotation Zrotation
										JOINT RightHandIndex3
										{
											OFFSET -5.337898 0.000000 0.000000
											CHANNELS 3 Xrotation Yrotation Zrotation
											JOINT RightHandIndex4
											{
												OFFSET -4.409401 0.000000 0.000000
												CHANNELS 3 Xrotation Yrotation Zrotation
												End Site
												{
													OFFSET 0.000000 4.409363 0.014408
												}
											}
										}
									}
								}
								JOINT RightHandMiddle1
								{
									OFFSET -23.810097 0.000000 0.000000
									CHANNELS 3 Xrotation Yrotation Zrotation
									JOINT RightHandMiddle2
									{
										OFFSET -7.176498 0.000000 0.000000
										CHANNELS 3 Xrotation Yrotation Zrotation
										JOINT RightHandMiddle3
										{
											OFFSET -6.774902 0.000000 0.000000
											CHANNELS 3 Xrotation Yrotation Zrotation
											JOINT RightHandMiddle4
											{
												OFFSET -5.403328 0.000000 0.000000
												CHANNELS 3 Xrotation Yrotation Zrotation
												End Site
												{
													OFFSET 0.027702 5.403244 0.017457
												}
											}
										}
									}
								}
								JOINT RightHandRing1
								{
									OFFSET -22.908302 -0.839325 -6.020576
									CHANNELS 3 Xrotation Yrotation Zrotation
									JOINT RightHandRing2
									{
										OFFSET -6.337502 0.000000 0.000000
										CHANNELS 3 Xrotation Yrotation Zrotation
										JOINT RightHandRing3
										{
											OFFSET -5.779297 0.000000 0.000000
											CHANNELS 3 Xrotation Yrotation Zrotation
											JOINT RightHandRing4
											{
												OFFSET -4.965698 0.000000 0.000000
												CHANNELS 3 Xrotation Yrotation Zrotation
												End Site
												{
													OFFSET 0.000000 4.965668 0.016226
												}
											}
										}
									}
								}
								JOINT RightHandPinky1
								{
									OFFSET -20.037003 -1.530334 -10.950259
									CHANNELS 3 Xrotation Yrotation Zrotation
									JOINT RightHandPinky2
									{
										OFFSET -5.254700 0.000000 0.000000
										CHANNELS 3 Xrotation Yrotation Zrotation
										JOINT RightHandPinky3
										{
											OFFSET -4.810204 0.000000 0.000000
											CHANNELS 3 Xrotation Yrotation Zrotation
											JOINT RightHandPinky4
											{
												OFFSET -3.647202 0.000000 0.000000
												CHANNELS 3 Xrotation Yrotation Zrotation
												End Site
												{
													OFFSET 0.000000 3.647186 0.011917
												}
											}
										}
									}
								}
							}
						}
					}
				}
			}
		}
	}
	JOINT LeftUpLeg
	{
		OFFSET 15.427100 -6.655098 0.678600
		CHANNELS 3 Xrotation Yrotation Zrotation
		JOINT LeftLeg
		{
			OFFSET 4.081073 -39.591068 13.024000
			CHANNELS 3 Xrotation Yrotation Zrotation
			JOINT LeftFoot
			{
				OFFSET -4.081074 -37.707932 -15.979700
				CHANNELS 3 Xrotation Yrotation Zrotation
				JOINT LeftToeBase
				{
					OFFSET 5.346399 -15.068900 20.645000
					CHANNELS 3 Xrotation Yrotation Zrotation
					JOINT LeftToe_End
					{
						OFFSET 2.754700 0.931300 11.300900
						CHANNELS 3 Xrotation Yrotation Zrotation
						End Site
						{
							OFFSET 0.000000 11.669021 0.000000
						}
					}
				}
			}
		}
	}
	JOINT RightUpLeg
	{
		OFFSET -15.569500 -6.655098 0.678600
		CHANNELS 3 Xrotation Yrotation Zrotation
		JOINT RightLeg
		{
			OFFSET -4.081825 -39.591045 13.023800
			CHANNELS 3 Xrotation Yrotation Zrotation
			JOINT RightFoot
			{
				OFFSET 4.081824 -37.707954 -15.979600
				CHANNELS 3 Xrotation Yrotation Zrotation
				JOINT RightToeBase
				{
					OFFSET -5.346400 -15.068900 20.645000
					CHANNELS 3 Xrotation Yrotation Zrotation
					JOINT RightToe_End
					{
						OFFSET -2.754700 0.931300 11.300900
						CHANNELS 3 Xrotation Yrotation Zrotation
						End Site
						{
							OFFSET 0.000000 11.669021 0.000000
						}
					}
				}
			}
		}
	}
}
MOTION
Frames: 4
Frame Time: 0.033333
1.559307 93.600822 -8.072384 -4.587296 78.801737 -0.841433 1.577110 -3.217308 3.056725 0.769433 -2.038329 6.314035 0.560958 -1.512044 6.253843 2.460590 3.740031 -1.818096 2.936646 10.296757 -10.531925 0.000000 0.000000 0.000000 3.560485 -14.120065 -3.617108 4.075450 1.036015 -84.003049 0.000005 -13.824404 0.000003 -29.384164 6.993642 -5.280037 19.194396 1.258418 10.250942 1.271782 31.787974 -3.066053 2.137669 9.089331 -0.505063 -0.000001 -0.000001 -0.000003 0.319165 4.410087 -5.890021 0.391811 2.836276 -20.700591 0.036568 0.830307 -10.303951 0.000000 0.000000 -0.000001 0.794200 8.484395 -14.452335 0.916123 3.986443 -33.344895 0.169186 1.483295 -12.206695 -0.000001 0.000000 0.000002 2.447701 11.649667 -25.711791 1.714706 3.890702 -40.271854 0.547277 1.840265 -19.402167 -0.000000 0.000000 -0.000000 5.278731 15.881803 -35.750890 1.391674 4.092623 -45.842976 0.494733 2.871423 -20.721553 -0.000000 0.000000 -0.000001 4.604185 2.572009 6.335134 -2.418436 1.743078 66.088009 -0.000007 18.709584 0.000002 -11.621938 -7.817514 10.455407 18.428247 0.749230 -10.921952 1.167616 -32.856113 3.096046 1.991074 -8.383087 1.097685 -0.000001 -0.000004 -0.000000 0.331809 -4.664625 7.953527 0.386552 -2.822299 20.552639 -0.193178 -0.214927 13.830369 -0.000001 -0.000002 -0.000004 0.918841 -8.776905 15.957024 0.916802 -3.987551 33.357712 0.215297 -1.684734 15.855376 0.000000 0.000000 -0.000001 2.549747 -11.646208 26.984894 1.706093 -3.882358 40.151626 -0.158538 0.041873 17.750709 -0.000000 0.000001 0.000000 5.548886 -15.970876 36.998899 1.378189 -4.077056 45.637873 -0.727709 -0.246684 22.115005 0.000001 0.000001 0.000000 -13.304296 13.973609 14.046439 25.585802 8.918371 1.992044 -9.739001 15.541713 -9.385740 -0.432841 -0.000014 0.000002 -0.000000 -0.000002 0.000000 -2.490910 -1.916679 7.754140 16.267497 1.229102 2.521361 -12.959449 -11.902113 -5.192398 -5.421855 0.000028 0.000002 -0.000000 -0.000001 -0.000000 
1.171250 93.818268 -6.637152 -5.933188 81.358188 0.453133 1.559126 -2.866128 3.066981 0.770337 -1.591381 6.289435 0.600006 -1.066770 6.223319 2.167421 2.895490 -1.825008 2.682798 8.072543 -9.853886 -0.000000 0.000000 0.000000 3.550458 -14.152777 -3.898757 3.869182 1.423874 -84.124346 0.000006 -14.354250 0.000001 -29.173066 6.505900 -5.995098 19.167323 1.235878 10.245555 1.275084 31.796358 -3.074534 2.135250 9.080031 -0.493566 0.000001 0.000002 0.000001 0.320046 4.417863 -5.943722 0.391585 2.835654 -20.694029 0.036446 0.829628 -10.297398 0.000000 0.000001 -0.000004 0.805266 8.522118 -14.505903 0.916807 3.987568 -33.358060 0.169514 1.484616 -12.220354 -0.000001 -0.000000 0.000001 2.455722 11.656855 -25.772216 1.714774 3.890784 -40.273159 0.547349 1.840425 -19.403495 -0.000003 -0.000000 -0.000001 5.300430 15.905361 -35.801116 1.392384 4.093429 -45.853741 0.495193 2.872433 -20.732303 0.000001 0.000001 -0.000001 4.587039 2.695534 6.172067 -2.364469 1.459360 66.277185 0.000011 18.455006 -0.000006 -11.511345 -7.940911 10.279580 18.384182 0.620200 -10.978657 1.251825 -32.847001 3.136888 1.993782 -8.390343 1.100307 -0.000000 0.000003 0.000000 0.329865 -4.658262 7.947956 0.387237 -2.824120 20.572040 -0.193099 -0.216949 13.849745 -0.000001 -0.000000 -0.000003 0.917954 -8.773367 15.959659 0.918027 -3.989488 33.380753 0.215926 -1.686920 15.878228 0.000000 -0.000001 -0.000000 2.550732 -11.649311 26.979823 1.708186 -3.884382 40.180767 -0.158279 0.038921 17.779824 -0.000000 -0.000001 -0.000000 5.551443 -15.975498 36.996976 1.379071 -4.078080 45.651499 -0.727774 -0.248221 22.128551 -0.000000 0.000000 0.000000 -13.986354 13.056669 15.124890 24.901615 8.915097 2.002712 -8.291188 13.360903 -10.086438 -0.432846 -0.000005 -0.000000 -0.000000 -0.000000 -0.000000 -1.738291 -2.069498 8.647009 14.931673 1.527724 2.616410 -12.540237 -8.842440 -6.200082 -3.903056 -0.000037 -0.000003 0.000000 0.000001 0.000000 
0.743219 94.047363 -5.249960 -8.440727 83.924092 2.929881 1.510897 -2.474124 3.092156 0.763827 -1.134411 6.225682 0.631622 -0.611622 6.153218 1.881452 2.070845 -1.875908 2.418995 6.049237 -9.323250 -0.000000 0.000000 -0.000000 3.550646 -14.104597 -4.170727 3.845910 1.882303 -84.108609 0.000006 -14.559187 -0.000007 -28.817924 5.905008 -6.843022 19.034716 0.959619 10.354726 1.278737 31.954893 -3.082723 2.129943 9.111833 -0.458694 -0.000001 -0.000003 0.000002 0.323284 4.460109 -6.250899 0.390726 2.833389 -20.670242 0.036113 0.827261 -10.273656 -0.000000 0.000000 -0.000002 0.825946 8.576762 -14.728179 0.917372 3.988425 -33.368220 0.169770 1.485646 -12.231001 0.000000 0.000000 0.000002 2.474458 11.663328 -25.966477 1.713983 3.890018 -40.262135 0.546858 1.839386 -19.392212 -0.000001 -0.000000 -0.000000 5.349929 15.932581 -35.994025 1.390331 4.091063 -45.822578 0.493887 2.869568 -20.701214 -0.000000 -0.000000 0.000001 4.567246 2.843901 6.003897 -2.158075 1.216254 66.520449 -0.000011 18.255523 0.000015 -11.444418 -8.187772 10.196166 18.388278 0.565579 -10.983440 1.277806 -32.834980 3.140919 1.996603 -8.397975 1.103054 -0.000000 0.000006 -0.000001 0.329873 -4.657012 7.939236 0.387395 -2.824538 20.576249 -0.193084 -0.217388 13.853927 0.000000 -0.000001 -0.000003 0.917055 -8.771214 15.950623 0.918550 -3.990311 33.390534 0.216197 -1.687856 15.887973 0.000000 -0.000001 0.000000 2.552102 -11.653334 26.973974 1.709106 -3.885273 40.194051 -0.158157 0.037535 17.793194 -0.000000 0.000001 0.000000 5.555237 -15.981398 36.997120 1.379087 -4.078091 45.651659 -0.727773 -0.248261 22.128735 -0.000000 -0.000000 0.000001 -14.754740 12.377741 16.135195 24.072974 8.901923 2.007100 -6.791244 10.923007 -10.624572 -0.432842 -0.000024 0.000002 -0.000000 0.000000 0.000000 -0.983791 -2.471165 9.363489 13.620736 1.023502 2.773336 -11.981172 -5.920106 -6.914675 -2.525240 -0.000006 0.000000 0.000000 -0.000000 0.000000 
0.277623 94.281204 -3.973540 -14.642203 86.474047 9.119999 1.446517 -2.064651 3.120439 0.753002 -0.677815 6.145565 0.658300 -0.156728 6.066607 1.599896 1.257376 -1.955439 2.152886 4.135129 -8.882392 -0.000000 -0.000000 0.000000 3.558641 -14.001747 -4.453593 3.888695 2.376633 -83.993404 0.000018 -14.617722 -0.000013 -28.421360 5.233527 -7.699309 18.864977 0.532556 10.521242 1.280531 32.197877 -3.085228 2.126122 9.171348 -0.428455 0.000001 -0.000002 -0.000001 0.326853 4.523641 -6.734797 0.389592 2.830403 -20.638474 0.035671 0.824086 -10.241965 0.000001 -0.000000 0.000001 0.852382 8.637894 -15.065717 0.917918 3.989313 -33.378660 0.170023 1.486672 -12.241852 -0.000000 0.000001 0.000000 2.500111 11.667886 -26.255437 1.713005 3.889063 -40.248345 0.546272 1.838125 -19.378027 -0.000001 0.000000 -0.000000 5.418648 15.962847 -36.282248 1.386870 4.087096 -45.770235 0.491725 2.864785 -20.649013 0.000000 0.000000 0.000001 4.546953 3.002230 5.828165 -1.881597 1.026773 66.789046 0.000000 18.084468 0.000003 -11.362527 -8.483500 10.173860 18.409527 0.533721 -10.970897 1.287375 -32.820162 3.132883 2.000281 -8.407836 1.106594 -0.000000 -0.000001 0.000001 0.332153 -4.661333 7.924020 0.387364 -2.824441 20.575265 -0.193087 -0.217294 13.852951 0.000001 -0.000000 -0.000001 0.916340 -8.771357 15.927673 0.918883 -3.990837 33.396818 0.216364 -1.688474 15.894275 0.000000 -0.000001 -0.000000 2.553725 -11.658419 26.965309 1.709759 -3.885918 40.202821 -0.158074 0.036621 17.802127 -0.000000 -0.000000 -0.000000 5.561363 -15.992659 36.990648 1.378984 -4.077968 45.649720 -0.727758 -0.248022 22.126813 0.000000 -0.000000 0.000001 -15.554885 11.761362 16.966910 23.136023 8.950776 2.016951 -5.265797 8.376862 -10.989413 -0.432842 -0.000009 0.000002 -0.000000 -0.000000 -0.000000 -0.227035 -3.016730 9.879904 12.344880 -0.131253 3.053004 -11.396350 -3.472246 -7.431547 -1.455681 0.000002 0.000003 0.000000 0.000000 0.000000 
